<svg width="601" height="447" viewBox="0 0 601 447" fill="none" xmlns="http://www.w3.org/2000/svg">
<path d="M16.0695 71.9789L21.426 67.5358H67.492C67.492 67.5358 132.841 -2.45013e-05 144.626 1.10324e-08C156.41 2.45233e-05 301.036 0.444565 301.036 0.444565H457.981C468.042 0.190374 496.548 33.3237 534.044 67.5357H580.11L584.93 71.5345V114.189L597.786 123.519L600.464 187.944L584.93 198.608V259.923V313.685L601 325.681L597.786 389.662L584.93 399.437V440.758L579.574 446.09H22.4973L16.0695 441.647V398.993L4.2852 390.106L1.0713 326.126L16.0695 315.018V198.608L0 187.5L4.2852 123.075L16.0695 114.189V71.9789Z" fill="url(#paint0_linear_1_3)"/>
<path d="M451.553 77.8874L451.623 77.8874L451.692 77.8857C457.735 77.7331 470.328 77.7659 489.359 77.8156C501.724 77.8479 516.808 77.8873 534.579 72.3875L572.611 77.8874H579.075L579.43 78.1083V93.2593V114.576V117.381L581.701 119.028L592.401 126.79L594.843 185.482L581.819 194.418L579.43 196.057V198.953V260.238V313.973V316.731L581.641 318.381L595.36 328.617L592.421 387.081L581.603 395.303L579.43 396.954V399.682V438.696L577.304 440.812H24.2125L21.5695 438.986V399.238V396.496L19.3799 394.846L9.64919 387.512L6.71229 329.074L19.3418 319.725L21.5695 318.076V315.305V198.953V196.068L19.1958 194.428L5.69519 185.1L9.60591 126.335L19.3799 118.968L21.5695 117.318V114.576V93.4814V79.5453L21.9876 79.4153L22.2282 79.3405L22.4609 79.2441L25.7347 77.8869L68.5633 77.8871L68.5633 72.3871C68.5633 77.8871 68.5636 77.8871 68.5642 77.8871H68.567H68.5782H68.6227H68.7987L69.4865 77.8871L72.1078 77.8871L81.5528 77.8871L111.014 77.8871L162.302 77.8872L236.356 77.8871L281.468 77.8871L296.07 77.8871L300.137 77.8871L301.205 77.8871L301.479 77.8871H301.548H301.565H301.57C301.571 77.8871 301.571 77.8871 301.571 72.3871V77.8871L451.553 77.8874Z" fill="url(#paint1_linear_1_3)" stroke="url(#paint2_linear_1_3)" stroke-width="11"/>
<path d="M474.928 55.5129L474.936 55.5243L474.945 55.5357L475.241 55.927C475.65 56.4668 475.872 57.1256 475.872 57.8029V58.1079C475.872 58.4404 475.786 58.7673 475.624 59.0572C475.28 59.669 474.633 60.0477 473.932 60.0477H133.913C133.417 60.0477 132.916 60.0617 132.464 60.0744C132.396 60.0763 132.329 60.0782 132.263 60.08C131.74 60.0943 131.277 60.1041 130.832 60.0955C129.939 60.0782 129.279 59.9862 128.738 59.7923C128.095 59.5622 127.663 59.2204 127.419 58.6409C127.31 58.3832 127.266 58.1252 127.272 57.8496C127.292 56.7717 127.774 55.6472 128.811 54.1865C129.321 53.4678 129.9 52.7553 130.554 51.9513L130.572 51.929C131.208 51.1463 131.919 50.2702 132.557 49.3557L139.876 38.8684L153.161 21.3333C153.507 20.876 153.843 20.4217 154.169 19.979C154.908 18.9786 156.395 16.9959 157.946 15.1104C158.724 14.166 159.493 13.275 160.178 12.5548C160.913 11.7814 161.382 11.3847 161.577 11.2613C162.228 10.8488 163.66 10.4892 165.376 10.2879C166.15 10.197 166.859 10.151 167.375 10.128C167.632 10.1165 167.837 10.1109 167.974 10.1082C168.043 10.1068 168.094 10.1062 168.126 10.1059L168.159 10.1056L168.161 10.1056H168.162L168.163 10.1056L168.164 10.1056H301.763H438.262C439.946 10.3016 440.607 10.4666 441.049 10.6767C441.414 10.85 441.837 11.1529 442.737 12.214L459.572 34.8386L459.573 34.8407L474.928 55.5129Z" fill="url(#paint3_linear_1_3)" fill-opacity="0.87" stroke="#C54799" stroke-width="6"/>
<rect x="28.9253" y="81.7127" width="545.292" height="355.273" fill="#150D24"/>
<path d="M435.485 115.299H531.545V183.41V184.584L532.449 185.334L542.258 193.466V219.825V221.136L543.337 221.882L548.686 225.577V232.346L543.789 236.036L542.794 236.786V238.033V282.155L532.985 290.287L532.081 291.037V292.212V316.193V336.621V337.834L533.034 338.585L542.794 346.272V411.837H59.2803V398.794V363.267V362.02L58.285 361.27L53.3881 357.579V319.968V319.961L53.3881 319.953L52.8599 226.905L58.2013 223.214L59.2803 222.469V221.157V204.282V202.94L58.1621 202.198L53.9238 199.387V153.498L58.3759 149.807L59.2803 149.057V147.882V106.417H81.4202H111.015L120.486 114.683L121.192 115.299H122.13H159.09H159.991L160.685 114.724L170.168 106.861H262.139L272.172 114.763L272.852 115.299H273.719H354.066H354.968L355.662 114.724L365.145 106.861H424.904L433.839 114.68L434.546 115.299H435.485Z" stroke="url(#paint4_linear_1_3)" stroke-width="5"/>
<rect x="72.7065" y="119.24" width="455.588" height="281.107" fill="#150D24" fill-opacity="0.09" stroke="url(#paint5_linear_1_3)" stroke-width="4"/>
<path d="M12.2052 367.459L11.1772 339.76L19.9264 335.473V372.661L13.0049 370.111L12.2052 367.459Z" fill="url(#paint6_linear_1_3)" stroke="#6990AA" stroke-width="3"/>
<path d="M12.2052 144.134L11.1772 171.833L19.9264 176.119V138.931L13.0049 141.482L12.2052 144.134Z" fill="url(#paint7_linear_1_3)" stroke="#6990AA" stroke-width="3"/>
<path d="M590.938 367.459L591.966 339.76L583.217 335.473V372.661L590.138 370.111L590.938 367.459Z" fill="url(#paint8_linear_1_3)" stroke="#6990AA" stroke-width="3"/>
<path d="M590.938 144.134L591.966 171.833L583.217 176.119V138.931L590.138 141.482L590.938 144.134Z" fill="url(#paint9_linear_1_3)" stroke="#6990AA" stroke-width="3"/>
<defs>
<linearGradient id="paint0_linear_1_3" x1="300.5" y1="0" x2="300.5" y2="446.09" gradientUnits="userSpaceOnUse">
<stop stop-color="#422F74"/>
<stop offset="0.170211" stop-color="#573861"/>
</linearGradient>
<linearGradient id="paint1_linear_1_3" x1="0" y1="259.349" x2="601" y2="259.349" gradientUnits="userSpaceOnUse">
<stop stop-color="#C54799"/>
<stop offset="1" stop-color="#00CFFC"/>
</linearGradient>
<linearGradient id="paint2_linear_1_3" x1="16.6052" y1="259.349" x2="601" y2="259.349" gradientUnits="userSpaceOnUse">
<stop offset="0.328764" stop-color="#C54799"/>
<stop offset="0.743556" stop-color="#00C4EF"/>
<stop offset="1" stop-color="#00D1FE"/>
</linearGradient>
<linearGradient id="paint3_linear_1_3" x1="301.571" y1="7.10562" x2="301.571" y2="63.0611" gradientUnits="userSpaceOnUse">
<stop offset="0.241079" stop-color="#C24698"/>
<stop offset="0.648773" stop-color="#47266F"/>
</linearGradient>
<linearGradient id="paint4_linear_1_3" x1="59.9942" y1="259.349" x2="551.721" y2="259.349" gradientUnits="userSpaceOnUse">
<stop stop-color="#2187CE"/>
<stop offset="1" stop-color="#4A3E89"/>
</linearGradient>
<linearGradient id="paint5_linear_1_3" x1="70.7065" y1="259.349" x2="530.295" y2="259.349" gradientUnits="userSpaceOnUse">
<stop stop-color="#2187CE"/>
<stop offset="1" stop-color="#48418C"/>
</linearGradient>
<linearGradient id="paint6_linear_1_3" x1="15.5342" y1="333.068" x2="15.9024" y2="369.485" gradientUnits="userSpaceOnUse">
<stop offset="0.152812" stop-color="#EDCE20"/>
<stop offset="0.520833" stop-color="#EEF171"/>
<stop offset="1" stop-color="#EDCE20"/>
</linearGradient>
<linearGradient id="paint7_linear_1_3" x1="15.5342" y1="178.525" x2="15.9024" y2="142.108" gradientUnits="userSpaceOnUse">
<stop offset="0.152812" stop-color="#EDCE20"/>
<stop offset="0.520833" stop-color="#EEF171"/>
<stop offset="1" stop-color="#EDCE20"/>
</linearGradient>
<linearGradient id="paint8_linear_1_3" x1="587.609" y1="333.068" x2="587.241" y2="369.485" gradientUnits="userSpaceOnUse">
<stop offset="0.152812" stop-color="#EDCE20"/>
<stop offset="0.520833" stop-color="#EEF171"/>
<stop offset="1" stop-color="#EDCE20"/>
</linearGradient>
<linearGradient id="paint9_linear_1_3" x1="587.609" y1="178.525" x2="587.241" y2="142.108" gradientUnits="userSpaceOnUse">
<stop offset="0.152812" stop-color="#EDCE20"/>
<stop offset="0.520833" stop-color="#EEF171"/>
<stop offset="1" stop-color="#EDCE20"/>
</linearGradient>
</defs>
</svg>
